<svg xmlns="http://www.w3.org/2000/svg" viewBox="0 0 512 512">
      <defs>
        <linearGradient id="bg" x1="0%" y1="0%" x2="100%" y2="100%">
          <stop offset="0%" stop-color="#E8341C"/>
          <stop offset="100%" stop-color="#B91C1C"/>
        </linearGradient>
        <linearGradient id="gold" x1="0%" y1="0%" x2="100%" y2="100%">
          <stop offset="0%" stop-color="#FDE047"/>
          <stop offset="100%" stop-color="#F59E0B"/>
        </linearGradient>
        <filter id="glow" x="-20%" y="-20%" width="140%" height="140%">
          <feDropShadow dx="0" dy="8" stdDeviation="12" flood-color="#000" flood-opacity="0.3"/>
        </filter>
      </defs>
      <rect width="512" height="512" rx="112" fill="url(#bg)"/>
      <g filter="url(#glow)">
        <!-- Brasão Palomino Tech -->
        <path d="M256 100 L370 150 V260 C370 340 256 400 256 400 C256 400 142 340 142 260 V150 Z" fill="#FFFFFF"/>
        <!-- Foguete interno -->
        <path d="M256 140 C286 168 300 205 300 240 C300 258 295 274 288 288 H224 C217 274 212 258 212 240 C212 205 226 168 256 140 Z" fill="#E8341C"/>
        <circle cx="256" cy="226" r="20" fill="#FFFFFF"/>
        <path d="M242 296 C242 316 248 332 256 350 C264 332 270 316 270 296 Z" fill="url(#gold)"/>
      </g>
    </svg>